<?xml version="1.0" encoding="utf-8"?>
<!-- Generator: Adobe Illustrator 17.0.2, SVG Export Plug-In . SVG Version: 6.00 Build 0)  -->
<!DOCTYPE svg PUBLIC "-//W3C//DTD SVG 1.1//EN" "http://www.w3.org/Graphics/SVG/1.1/DTD/svg11.dtd">
<svg version="1.1" id="Layer_1" xmlns="http://www.w3.org/2000/svg" xmlns:xlink="http://www.w3.org/1999/xlink" x="0px" y="0px"
	 width="113.75px" height="51.595px" viewBox="0 0 113.75 51.595" style="enable-background:new 0 0 113.75 51.595;"
	 xml:space="preserve">
<g>
	<path d="M4.46,2.5h12.6l13.248,18.504V2.5h15.048v48.024H32.685L19.508,32.091v18.432H4.46V2.5z M13.028,44.764V11.5l23.76,33.264
		h1.872V8.259h-1.872v33.264L13.028,8.259h-1.872v36.504H13.028z"/>
	<path d="M50.396,2.5h15.984v35.424h13.248v12.6H50.396V2.5z M75.596,44.764v-1.728H59.467V8.259h-1.872v36.504H75.596z"/>
	<path d="M82.291,35.62c1.055,0.336,2.16,0.601,3.312,0.792c0.959,0.241,2.052,0.432,3.276,0.576s2.459,0.216,3.708,0.216
		c2.207,0,3.312-0.816,3.312-2.448c0-0.623-0.336-1.26-1.008-1.908c-0.673-0.648-1.524-1.368-2.556-2.16
		c-1.033-0.792-2.136-1.667-3.312-2.628c-1.177-0.96-2.28-2.063-3.312-3.312c-1.033-1.248-1.884-2.652-2.556-4.212
		c-0.673-1.56-1.008-3.348-1.008-5.364c0-2.255,0.407-4.248,1.224-5.976c0.815-1.728,1.944-3.168,3.384-4.32
		s3.132-2.027,5.076-2.628c1.944-0.6,4.02-0.9,6.228-0.9c1.152,0,2.304,0.061,3.456,0.18c1.152,0.121,2.184,0.229,3.096,0.324
		c1.055,0.144,2.088,0.288,3.096,0.432v13.464c-0.385-0.047-0.817-0.096-1.296-0.144c-0.385-0.047-0.817-0.096-1.296-0.144
		c-0.48-0.047-0.984-0.072-1.512-0.072c-0.288,0-0.648,0.013-1.08,0.036c-0.432,0.025-0.84,0.084-1.224,0.18
		c-0.385,0.097-0.72,0.264-1.008,0.504c-0.288,0.241-0.432,0.576-0.432,1.008c0,0.385,0.324,0.864,0.972,1.44
		c0.648,0.576,1.44,1.249,2.376,2.016c0.936,0.769,1.967,1.656,3.096,2.664c1.127,1.008,2.16,2.16,3.096,3.456
		s1.728,2.761,2.376,4.392c0.648,1.632,0.972,3.456,0.972,5.472c0,2.112-0.336,4.092-1.008,5.94
		c-0.673,1.848-1.717,3.456-3.132,4.824c-1.417,1.368-3.229,2.448-5.436,3.24c-2.208,0.792-4.824,1.188-7.848,1.188
		c-1.825,0-3.517-0.084-5.076-0.252c-1.561-0.169-2.941-0.373-4.14-0.612c-1.393-0.241-2.664-0.527-3.816-0.864V35.62z
		 M88.338,44.259c0.672,0.144,1.392,0.265,2.16,0.36c0.671,0.097,1.379,0.18,2.124,0.252c0.744,0.072,1.5,0.108,2.268,0.108
		c1.343,0,2.651-0.155,3.924-0.468c1.271-0.312,2.412-0.828,3.42-1.548c1.008-0.72,1.812-1.644,2.412-2.772
		c0.6-1.127,0.9-2.508,0.9-4.14c0-1.392-0.349-2.711-1.044-3.96c-0.696-1.248-1.584-2.448-2.664-3.6
		c-1.08-1.152-2.232-2.255-3.456-3.312c-1.224-1.055-2.376-2.124-3.456-3.204s-1.969-2.16-2.664-3.24
		c-0.696-1.08-1.044-2.196-1.044-3.348c0-1.728,0.551-3.06,1.656-3.996c1.104-0.936,2.88-1.404,5.328-1.404
		c0.383,0,0.779,0.013,1.188,0.036c0.407,0.025,0.803,0.061,1.188,0.108c0.383,0.048,0.767,0.072,1.152,0.072V8.332
		c-0.336,0-0.696-0.024-1.08-0.072c-0.336-0.047-0.708-0.083-1.116-0.108c-0.408-0.023-0.828-0.036-1.26-0.036
		c-2.592,0-4.729,0.588-6.408,1.764c-1.681,1.177-2.52,3.013-2.52,5.508c0,1.345,0.348,2.604,1.044,3.78
		c0.695,1.177,1.584,2.329,2.664,3.456c1.08,1.128,2.232,2.221,3.456,3.276c1.224,1.057,2.376,2.124,3.456,3.204
		s1.968,2.196,2.664,3.348c0.695,1.152,1.044,2.352,1.044,3.6c0,2.304-0.781,4.057-2.34,5.256c-1.561,1.2-3.708,1.8-6.444,1.8
		c-1.633,0-3.121-0.119-4.464-0.36c-0.72-0.096-1.416-0.216-2.088-0.36V44.259z"/>
</g>
</svg>
